<svg style="display: none">

<!--Logo-->
    <symbol id="icon-logo" width="144" height="84" viewBox="0 0 144 84" fill="none" xmlns="http://www.w3.org/2000/svg">
        <path d="M1.75 58L8.80469 26.1719H9.625L12.9062 41.4844L9.29688 58H1.75ZM13.3984 53.3516L15.0391 45.8047H17.0078L11.2109 19.7188H18.8125L27.8359 58H20.1797L19.0859 53.3516H13.3984ZM30.9531 48.1016V29.6719C30.9531 27.5573 31.737 25.4974 33.3047 23.4922C35.3828 20.8307 38.1901 19.4818 41.7266 19.4453V27.1562C40.1953 27.1927 39.2109 27.9036 38.7734 29.2891C38.7005 29.4349 38.6641 29.5625 38.6641 29.6719V48.1016C38.6641 48.6849 38.974 49.25 39.5938 49.7969C40.1771 50.3073 40.888 50.5625 41.7266 50.5625V58.2734C37.6432 58.2734 34.5625 56.5599 32.4844 53.1328C31.4635 51.3828 30.9531 49.7057 30.9531 48.1016ZM44.6797 58.2734V50.5625C44.6797 50.5625 45.099 50.3984 45.9375 50.0703C46.4479 49.7057 46.7943 49.3229 46.9766 48.9219C47.1589 48.4479 47.25 47.7734 47.25 46.8984V46.2422L54.7969 48.0469C54.7969 51.2188 53.5208 53.8438 50.9688 55.9219C49.0365 57.4896 46.9401 58.2734 44.6797 58.2734ZM44.6797 27.1562V19.4453C47.3411 19.4453 49.7474 20.612 51.8984 22.9453C53.8307 25.0599 54.7969 27.3385 54.7969 29.7812L47.25 31.75V30.9297C47.25 30.0182 47.1589 29.3438 46.9766 28.9062C46.8307 28.5417 46.5573 28.2135 46.1562 27.9219C45.7917 27.6302 45.4635 27.4297 45.1719 27.3203L44.6797 27.1562ZM56.7109 27.2656V19.7188H80.3906V27.2656H72.4062V58H64.6953V27.2656H56.7109ZM83.5078 58V19.7188H91.2188V58H83.5078ZM93.9531 19.7188H101.828L110.523 49.3594L107.625 58H105.055L93.9531 19.7188ZM108.008 29.8906L111.016 19.7188H118.891C118.854 19.8281 116.612 27.3021 112.164 42.1406H111.617L108.008 29.8906ZM121.625 58V19.7188H141.531V27.375H129.336V35.1406H136.391V42.8516H129.336V50.2891H141.531V58H121.625Z" fill="#0E0E0E" fill-opacity="0.92"/>
        <path d="M51.104 84C50.576 84 50.088 83.872 49.64 83.616C49.208 83.36 48.864 83.016 48.608 82.584C48.352 82.136 48.224 81.648 48.224 81.12V80.448H50.168V81.12C50.168 81.376 50.256 81.6 50.432 81.792C50.624 81.968 50.848 82.056 51.104 82.056H62.624C62.88 82.056 63.096 81.968 63.272 81.792C63.464 81.6 63.56 81.376 63.56 81.12V77.256C63.56 77 63.464 76.784 63.272 76.608C63.096 76.432 62.88 76.344 62.624 76.344H51.104C50.576 76.344 50.088 76.216 49.64 75.96C49.208 75.688 48.864 75.336 48.608 74.904C48.352 74.472 48.224 73.992 48.224 73.464V69.6C48.224 69.072 48.352 68.592 48.608 68.16C48.864 67.712 49.208 67.36 49.64 67.104C50.088 66.848 50.576 66.72 51.104 66.72H62.624C63.152 66.72 63.632 66.848 64.064 67.104C64.512 67.36 64.864 67.712 65.12 68.16C65.376 68.592 65.504 69.072 65.504 69.6V70.272H63.56V69.6C63.56 69.344 63.464 69.128 63.272 68.952C63.096 68.76 62.88 68.664 62.624 68.664H51.104C50.848 68.664 50.624 68.76 50.432 68.952C50.256 69.128 50.168 69.344 50.168 69.6V73.464C50.168 73.72 50.256 73.936 50.432 74.112C50.624 74.288 50.848 74.376 51.104 74.376H62.624C63.152 74.376 63.632 74.512 64.064 74.784C64.512 75.04 64.864 75.384 65.12 75.816C65.376 76.248 65.504 76.728 65.504 77.256V81.12C65.504 81.648 65.376 82.136 65.12 82.584C64.864 83.016 64.512 83.36 64.064 83.616C63.632 83.872 63.152 84 62.624 84H51.104ZM68.0784 84V66.744H82.4784C83.0064 66.744 83.4864 66.88 83.9184 67.152C84.3664 67.408 84.7184 67.752 84.9744 68.184C85.2304 68.616 85.3584 69.096 85.3584 69.624V74.688C85.3584 75.216 85.2304 75.696 84.9744 76.128C84.7184 76.56 84.3664 76.912 83.9184 77.184C83.4864 77.44 83.0064 77.568 82.4784 77.568H70.0224V84H68.0784ZM70.9584 75.6H82.4784C82.7344 75.6 82.9504 75.512 83.1264 75.336C83.3184 75.16 83.4144 74.944 83.4144 74.688V69.624C83.4144 69.368 83.3184 69.152 83.1264 68.976C82.9504 68.784 82.7344 68.688 82.4784 68.688H70.9584C70.7024 68.688 70.4784 68.784 70.2864 68.976C70.1104 69.152 70.0224 69.368 70.0224 69.624V74.688C70.0224 74.944 70.1104 75.16 70.2864 75.336C70.4784 75.512 70.7024 75.6 70.9584 75.6ZM89.8948 84C89.3668 84 88.8788 83.872 88.4308 83.616C87.9988 83.36 87.6548 83.016 87.3988 82.584C87.1428 82.136 87.0148 81.648 87.0148 81.12V69.6C87.0148 69.072 87.1428 68.592 87.3988 68.16C87.6548 67.712 87.9988 67.36 88.4308 67.104C88.8788 66.848 89.3668 66.72 89.8948 66.72H101.415C101.943 66.72 102.423 66.848 102.855 67.104C103.303 67.36 103.655 67.712 103.911 68.16C104.167 68.592 104.295 69.072 104.295 69.6V81.12C104.295 81.648 104.167 82.136 103.911 82.584C103.655 83.016 103.303 83.36 102.855 83.616C102.423 83.872 101.943 84 101.415 84H89.8948ZM89.8948 82.056H101.415C101.671 82.056 101.887 81.968 102.063 81.792C102.255 81.6 102.351 81.376 102.351 81.12V69.6C102.351 69.344 102.255 69.128 102.063 68.952C101.887 68.76 101.671 68.664 101.415 68.664H89.8948C89.6388 68.664 89.4148 68.76 89.2228 68.952C89.0468 69.128 88.9588 69.344 88.9588 69.6V81.12C88.9588 81.376 89.0468 81.6 89.2228 81.792C89.4148 81.968 89.6388 82.056 89.8948 82.056ZM121.53 84L115.89 77.28H118.434L124.098 83.976V84H121.53ZM106.938 84V66.744H121.338C121.866 66.744 122.346 66.88 122.778 67.152C123.226 67.408 123.578 67.752 123.834 68.184C124.09 68.616 124.218 69.096 124.218 69.624V74.688C124.218 75.216 124.09 75.696 123.834 76.128C123.578 76.56 123.226 76.912 122.778 77.184C122.346 77.44 121.866 77.568 121.338 77.568H108.882V84H106.938ZM109.818 75.6H121.338C121.594 75.6 121.81 75.512 121.986 75.336C122.178 75.16 122.274 74.944 122.274 74.688V69.624C122.274 69.368 122.178 69.152 121.986 68.976C121.81 68.784 121.594 68.688 121.338 68.688H109.818C109.562 68.688 109.338 68.784 109.146 68.976C108.97 69.152 108.882 69.368 108.882 69.624V74.688C108.882 74.944 108.97 75.16 109.146 75.336C109.338 75.512 109.562 75.6 109.818 75.6ZM133.558 84V68.664H125.878V66.72H143.158V68.664H135.502V84H133.558Z" fill="#0E0E0E" fill-opacity="0.92"/>
    </symbol>

<!--Phone-->
    <symbol id="icon-phone" width="26" height="26" viewBox="0 0 27 27" fill="none" xmlns="http://www.w3.org/2000/svg">
        <path d="M22.0996 16.389L17.038 14.1207C16.8087 14.0225 16.5585 13.983 16.31 14.0058C16.0615 14.0286 15.8227 14.1131 15.6151 14.2515C15.594 14.265 15.574 14.28 15.5551 14.2965L12.9097 16.5465C12.8822 16.5615 12.8517 16.5699 12.8204 16.571C12.7892 16.5721 12.7581 16.5659 12.7297 16.553C11.0292 15.7322 9.26776 13.9814 8.4438 12.3046C8.43008 12.2766 8.42295 12.2458 8.42295 12.2146C8.42295 12.1834 8.43008 12.1526 8.4438 12.1246L10.7014 9.44592C10.7176 9.4261 10.7326 9.40535 10.7464 9.38378C10.8829 9.17538 10.9653 8.93628 10.9863 8.68804C11.0072 8.43981 10.966 8.19027 10.8664 7.96194L8.61416 2.9089C8.48626 2.61061 8.26507 2.36185 7.98378 2.19996C7.70249 2.03806 7.37628 1.97176 7.05411 2.01101C5.65395 2.19508 4.36871 2.88269 3.43858 3.94533C2.50846 5.00797 1.99708 6.37294 2.00001 7.78515C2.00001 16.1747 8.82524 23 17.2148 23C18.627 23.0027 19.9918 22.4912 21.0544 21.5611C22.117 20.6311 22.8046 19.346 22.9889 17.9459C23.0281 17.6252 22.9627 17.3005 22.8025 17.02C22.6422 16.7395 22.3957 16.5182 22.0996 16.389ZM17.2148 21.7142C9.53455 21.7142 3.28577 15.4654 3.28577 7.78515C3.28219 6.68575 3.679 5.62265 4.40207 4.79448C5.12514 3.96631 6.125 3.42973 7.21483 3.28499H7.23947C7.28265 3.28579 7.32458 3.29962 7.35976 3.32467C7.39494 3.34972 7.42173 3.38481 7.43662 3.42535L9.69741 8.47303C9.71031 8.5011 9.71698 8.53161 9.71698 8.5625C9.71698 8.59338 9.71031 8.6239 9.69741 8.65197L7.43555 11.3371C7.41868 11.3562 7.40328 11.3766 7.38948 11.3981C7.24794 11.6142 7.1646 11.8632 7.14752 12.1209C7.13044 12.3786 7.1802 12.6364 7.29198 12.8693C8.24237 14.815 10.2031 16.7608 12.1704 17.7112C12.4046 17.8224 12.6636 17.8709 12.9222 17.8522C13.1808 17.8334 13.4301 17.7479 13.6458 17.6041C13.6661 17.5901 13.6865 17.5751 13.7058 17.5591L16.3501 15.309C16.3763 15.295 16.4051 15.2867 16.4347 15.2849C16.4643 15.283 16.4939 15.2876 16.5216 15.2983L21.5842 17.5666C21.6256 17.5842 21.6604 17.6144 21.6836 17.6528C21.7069 17.6913 21.7175 17.7361 21.7139 17.7809C21.5699 18.8712 21.0338 19.8718 20.2058 20.5957C19.3779 21.3196 18.3146 21.7172 17.2148 21.7142Z" fill="#221111"/>
    </symbol>

<!--Heart-->
    <symbol id="icon-heart" width="24" height="24" viewBox="0 0 22 20" fill="none" xmlns="http://www.w3.org/2000/svg">
        <path d="M11 3.49999L10.46 4.01999C10.53 4.09257 10.6138 4.15031 10.7066 4.18974C10.7994 4.22918 10.8992 4.24951 11 4.24951C11.1008 4.24951 11.2006 4.22918 11.2934 4.18974C11.3862 4.15031 11.47 4.09257 11.54 4.01999L11 3.49999ZM8.426 16.322C6.91 15.127 5.253 13.96 3.938 12.48C2.65 11.028 1.75 9.33499 1.75 7.13699H0.25C0.25 9.80299 1.36 11.837 2.817 13.476C4.247 15.086 6.071 16.376 7.497 17.5L8.427 16.322H8.426ZM1.75 7.13699C1.75 4.98699 2.965 3.18299 4.624 2.42399C6.236 1.68699 8.402 1.88199 10.46 4.01999L11.54 2.98099C9.1 0.443986 6.264 0.0249861 4 1.05999C1.786 2.07299 0.25 4.42499 0.25 7.13699H1.75ZM7.497 17.5C8.01 17.904 8.56 18.334 9.117 18.66C9.674 18.985 10.31 19.25 11 19.25V17.75C10.69 17.75 10.326 17.63 9.874 17.365C9.421 17.101 8.952 16.737 8.426 16.322L7.497 17.5ZM14.503 17.5C15.929 16.375 17.753 15.087 19.183 13.476C20.64 11.836 21.75 9.80299 21.75 7.13699H20.25C20.25 9.33499 19.35 11.028 18.062 12.48C16.747 13.96 15.09 15.127 13.574 16.322L14.503 17.5ZM21.75 7.13699C21.75 4.42499 20.215 2.07299 18 1.05999C15.736 0.0249861 12.902 0.443986 10.46 2.97999L11.54 4.01999C13.598 1.88299 15.764 1.68699 17.376 2.42399C19.035 3.18299 20.25 4.98599 20.25 7.13699H21.75ZM13.574 16.322C13.048 16.737 12.579 17.101 12.126 17.365C11.674 17.629 11.31 17.75 11 17.75V19.25C11.69 19.25 12.326 18.985 12.883 18.66C13.441 18.334 13.99 17.904 14.503 17.5L13.574 16.322Z" fill="#130101"/>
    </symbol>

<!--Cart-->
    <symbol id="icon-cart" width="22" height="22" viewBox="0 0 22 22" fill="none" xmlns="http://www.w3.org/2000/svg">
        <path d="M0.0015709 0.785546C0.0015709 0.577206 0.0843295 0.377399 0.231641 0.230081C0.378952 0.0827624 0.578748 0 0.787077 0H1.47518C2.61731 0 3.27399 0.743126 3.65418 1.48468C3.91339 1.99214 4.10034 2.61115 4.25587 3.14847H20.4295C20.6722 3.14854 20.9116 3.20487 21.129 3.31303C21.3463 3.42119 21.5356 3.57825 21.682 3.77187C21.8284 3.96549 21.928 4.19041 21.9729 4.42899C22.0178 4.66756 22.0068 4.91329 21.9408 5.1469L19.5905 13.4344C19.4036 14.0919 19.0073 14.6705 18.4619 15.0825C17.9164 15.4945 17.2514 15.7173 16.5679 15.7172H8.58873C7.89949 15.7174 7.22929 15.491 6.68139 15.0728C6.13349 14.6547 5.73829 14.0679 5.55667 13.403L4.54808 9.70306C4.5423 9.68648 4.53706 9.66971 4.53237 9.65279L2.91266 4.15868L2.75556 3.62922C2.59846 3.08562 2.46021 2.60487 2.25283 2.2011C2.00304 1.71406 1.77367 1.57266 1.47361 1.57266H0.785506C0.577177 1.57266 0.37738 1.4899 0.230069 1.34258C0.0827583 1.19526 0 0.995457 0 0.787117L0.0015709 0.785546ZM6.04683 9.22859L7.0727 12.9929C7.16365 13.3252 7.36132 13.6184 7.63525 13.8274C7.90919 14.0363 8.24421 14.1494 8.58873 14.1493H16.5695C16.9111 14.1489 17.2433 14.0372 17.5157 13.8311C17.7881 13.625 17.986 13.3357 18.0792 13.0071L20.4295 4.71956H4.71932L6.04683 9.22859ZM11.0034 19.6434C11.0034 20.2684 10.7551 20.8678 10.3132 21.3098C9.87123 21.7517 9.27184 22 8.64686 22C8.02187 22 7.42248 21.7517 6.98054 21.3098C6.53861 20.8678 6.29034 20.2684 6.29034 19.6434C6.29034 19.0183 6.53861 18.4189 6.98054 17.977C7.42248 17.535 8.02187 17.2867 8.64686 17.2867C9.27184 17.2867 9.87123 17.535 10.3132 17.977C10.7551 18.4189 11.0034 19.0183 11.0034 19.6434ZM9.43236 19.6434C9.43236 19.435 9.3496 19.2352 9.20229 19.0879C9.05498 18.9406 8.85518 18.8578 8.64686 18.8578C8.43853 18.8578 8.23873 18.9406 8.09142 19.0879C7.94411 19.2352 7.86135 19.435 7.86135 19.6434C7.86135 19.8517 7.94411 20.0515 8.09142 20.1988C8.23873 20.3461 8.43853 20.4289 8.64686 20.4289C8.85518 20.4289 9.05498 20.3461 9.20229 20.1988C9.3496 20.0515 9.43236 19.8517 9.43236 19.6434ZM18.8584 19.6434C18.8584 20.2684 18.6102 20.8678 18.1682 21.3098C17.7263 21.7517 17.1269 22 16.5019 22C15.8769 22 15.2775 21.7517 14.8356 21.3098C14.3937 20.8678 14.1454 20.2684 14.1454 19.6434C14.1454 19.0183 14.3937 18.4189 14.8356 17.977C15.2775 17.535 15.8769 17.2867 16.5019 17.2867C17.1269 17.2867 17.7263 17.535 18.1682 17.977C18.6102 18.4189 18.8584 19.0183 18.8584 19.6434ZM17.2874 19.6434C17.2874 19.435 17.2047 19.2352 17.0574 19.0879C16.91 18.9406 16.7102 18.8578 16.5019 18.8578C16.2936 18.8578 16.0938 18.9406 15.9465 19.0879C15.7992 19.2352 15.7164 19.435 15.7164 19.6434C15.7164 19.8517 15.7992 20.0515 15.9465 20.1988C16.0938 20.3461 16.2936 20.4289 16.5019 20.4289C16.7102 20.4289 16.91 20.3461 17.0574 20.1988C17.2047 20.0515 17.2874 19.8517 17.2874 19.6434Z" fill="#130101"/>
    </symbol>

<!--Arrow-->
   <symbol id="icon-arrow" width="65" height="65" viewBox="0 0 66 66" fill="none" xmlns="http://www.w3.org/2000/svg">
        
        <circle cx="32.5" cy="32.5" r="32.5" transform="matrix(-1 0 0 1 65 0)" fill="#A6A6A6"/>
        <circle cx="32.5" cy="32.5" r="32.5" transform="matrix(-1 0 0 1 65 0)" fill="#9AE715"/>
        <circle cx="32.5" cy="32.5" r="32.5" transform="matrix(-1 0 0 1 65 0)" stroke="#none"/>
        <path d="M34.5 39.75L25.75 31L34.5 22.25" stroke="#111010" stroke-width="3" stroke-linecap="round" stroke-linejoin="round"/>
    </symbol>

<!--Line-->
    <symbol id="icon-black-line" width="26" height="10" viewBox="0 0 26 10" fill="none" xmlns="http://www.w3.org/2000/svg">
        <path d="M26 5L18.5 0.669873V9.33013L26 5ZM19.25 4.25L-1.90735e-06 4.25V5.75L19.25 5.75V4.25Z" fill="#0C0B0B"/>
    </symbol>

    <symbol id="icon-white-line" width="26" height="10" viewBox="0 0 26 10" fill="none" xmlns="http://www.w3.org/2000/svg">
        <path d="M26 5L18.5 0.669873V9.33013L26 5ZM19.25 4.25L-1.90735e-06 4.25V5.75L19.25 5.75V4.25Z" fill="#fff"/>
    </symbol>

<!--Instagram-->
    <symbol id="icon-instagram" width="30" height="30" viewBox="0 0 30 30" fill="none" xmlns="http://www.w3.org/2000/svg">
        <rect width="30" height="30" fill="white"/>
        <path d="M15 19C16.0609 19 17.0783 18.5786 17.8284 17.8284C18.5786 17.0783 19 16.0609 19 15C19 13.9391 18.5786 12.9217 17.8284 12.1716C17.0783 11.4214 16.0609 11 15 11C13.9391 11 12.9217 11.4214 12.1716 12.1716C11.4214 12.9217 11 13.9391 11 15C11 16.0609 11.4214 17.0783 12.1716 17.8284C12.9217 18.5786 13.9391 19 15 19Z" stroke="#0B0B0B" stroke-width="1.5" stroke-linecap="round" stroke-linejoin="round"/>
        <path d="M6 19V11C6 9.67392 6.52678 8.40215 7.46447 7.46447C8.40215 6.52678 9.67392 6 11 6H19C20.3261 6 21.5979 6.52678 22.5355 7.46447C23.4732 8.40215 24 9.67392 24 11V19C24 20.3261 23.4732 21.5979 22.5355 22.5355C21.5979 23.4732 20.3261 24 19 24H11C9.67392 24 8.40215 23.4732 7.46447 22.5355C6.52678 21.5979 6 20.3261 6 19Z" stroke="#0B0B0B" stroke-width="1.5"/>
        <path d="M20.5 9.51002L20.51 9.49902" stroke="#0B0B0B" stroke-width="1.5" stroke-linecap="round" stroke-linejoin="round"/>
    </symbol>

<!--Facebook-->
    <symbol id="icon-facebook" width="30" height="30" viewBox="0 0 30 30" fill="none" xmlns="http://www.w3.org/2000/svg">
        <rect width="30" height="30" fill="white"/>
        <path d="M20.5 5H17.5C16.1739 5 14.9021 5.52678 13.9645 6.46447C13.0268 7.40215 12.5 8.67392 12.5 10V13H9.5V17H12.5V25H16.5V17H19.5L20.5 13H16.5V10C16.5 9.73478 16.6054 9.48043 16.7929 9.29289C16.9804 9.10536 17.2348 9 17.5 9H20.5V5Z" stroke="#131413" stroke-width="1.5" stroke-linecap="round" stroke-linejoin="round"/>
    </symbol>

<!--Twitter-->
    <symbol id="icon-twitter" width="30" height="30" viewBox="0 0 30 30" fill="none" xmlns="http://www.w3.org/2000/svg">
        <rect width="30" height="30" fill="white"/>
        <path fill-rule="evenodd" clip-rule="evenodd" d="M20.817 9.9889C20.464 9.4809 19.52 8.7669 17.991 9.0749C17.099 9.2539 16.566 9.6949 16.227 10.2769C15.866 10.8969 15.691 11.7399 15.691 12.7209C15.691 12.9861 15.5857 13.2405 15.3982 13.428C15.2106 13.6155 14.9563 13.7209 14.691 13.7209C12.325 13.7209 10.073 13.0179 8.17804 11.1169C8.03497 11.8882 7.97862 12.6731 8.01004 13.4569C8.06304 14.5429 8.32204 15.6319 8.93704 16.5649C9.54204 17.4819 10.537 18.3219 12.201 18.8499C12.3641 18.9016 12.5112 18.9943 12.6282 19.1191C12.7452 19.2439 12.8282 19.3966 12.8693 19.5626C12.9105 19.7287 12.9083 19.9025 12.8631 20.0675C12.8179 20.2324 12.7311 20.383 12.611 20.5049C12.078 21.0516 11.474 21.5242 10.815 21.9099C11.875 22.0199 12.897 22.0279 13.845 21.9419C15.765 21.7679 17.294 21.2189 18.25 20.4419C20.263 18.8099 21.34 16.3759 21.14 12.2979C21.106 11.6279 21.753 10.9049 22.065 10.3559C21.594 10.4439 21.122 10.4279 20.817 9.9889ZM7.59404 7.9839C7.7751 7.96286 7.95846 7.99171 8.12431 8.06732C8.29016 8.14293 8.43218 8.26243 8.53504 8.4129C10.011 10.5719 11.783 11.4699 13.75 11.6739C13.846 10.8329 14.073 10.0019 14.5 9.2699C15.126 8.1959 16.144 7.4059 17.598 7.1139C19.608 6.7099 21.138 7.4379 22.025 8.3289L23.817 7.9939C24.0046 7.95877 24.1982 7.97801 24.3752 8.04935C24.5521 8.1207 24.7049 8.24117 24.8157 8.39655C24.9264 8.55193 24.9903 8.73574 24.9999 8.92628C25.0096 9.11682 24.9645 9.30614 24.87 9.4719L23.15 12.4939C23.307 16.8549 22.095 19.8989 19.511 21.9959C18.141 23.1079 16.179 23.7389 14.026 23.9339C11.856 24.1299 9.40304 23.8929 6.96504 23.1809C6.75674 23.1201 6.57384 22.9933 6.44397 22.8194C6.31409 22.6456 6.24428 22.4343 6.24507 22.2173C6.24587 22.0003 6.31721 21.7894 6.44835 21.6166C6.57949 21.4437 6.7633 21.3181 6.97204 21.2589C8.19804 20.9099 9.13204 20.6089 9.97504 20.0819C8.77604 19.4459 7.89304 18.6139 7.26804 17.6659C6.40004 16.3479 6.07804 14.8779 6.01404 13.5529C5.95004 12.2279 6.14104 10.9999 6.34304 10.1149C6.45804 9.6099 6.59204 9.1039 6.77704 8.6199C6.8423 8.44929 6.95304 8.29982 7.09725 8.1877C7.24145 8.07558 7.41261 8.0051 7.59404 7.9839Z" fill="#131413"/>
    </symbol>

<!--Remove-->
    <symbol id='icon-remove' width="18" height="21" viewBox="0 0 18 21" fill="none" xmlns="http://www.w3.org/2000/svg">
        <path d="M17 4.5C17.2549 4.50028 17.5 4.59788 17.6854 4.77285C17.8707 4.94782 17.9822 5.18695 17.9972 5.44139C18.0121 5.69584 17.9293 5.94638 17.7657 6.14183C17.6021 6.33729 17.3701 6.4629 17.117 6.493L17 6.5H16.919L16 17.5C16 18.2652 15.7077 19.0015 15.1827 19.5583C14.6577 20.115 13.9399 20.4501 13.176 20.495L13 20.5H4.99999C3.40199 20.5 2.09599 19.251 2.00799 17.75L2.00299 17.583L1.07999 6.5H0.999991C0.745111 6.49972 0.499959 6.40212 0.314622 6.22715C0.129286 6.05218 0.0177558 5.81305 0.00281867 5.55861C-0.0121185 5.30416 0.0706654 5.05362 0.234256 4.85817C0.397846 4.66271 0.629895 4.5371 0.882991 4.507L0.999991 4.5H17ZM11 0.5C11.5304 0.5 12.0391 0.710714 12.4142 1.08579C12.7893 1.46086 13 1.96957 13 2.5C12.9997 2.75488 12.9021 3.00003 12.7271 3.18537C12.5522 3.3707 12.313 3.48223 12.0586 3.49717C11.8042 3.51211 11.5536 3.42933 11.3582 3.26574C11.1627 3.10214 11.0371 2.8701 11.007 2.617L11 2.5H6.99999L6.99299 2.617C6.96289 2.8701 6.83728 3.10214 6.64182 3.26574C6.44637 3.42933 6.19583 3.51211 5.94139 3.49717C5.68694 3.48223 5.44781 3.3707 5.27284 3.18537C5.09787 3.00003 5.00027 2.75488 4.99999 2.5C4.99983 1.99542 5.1904 1.50943 5.53349 1.13945C5.87658 0.769471 6.34684 0.542843 6.84999 0.505L6.99999 0.5H11Z" fill="#444444"/>
    </symbol>

</svg>

